#define bat_70_width 16
#define bat_70_height 16
static unsigned char bat_70_bits[] = {
   0x00, 0x00, 0x00, 0x00, 0x00, 0x00, 0x00, 0x00, 0xfe, 0x1f, 0xfe, 0x11,
   0xfe, 0x71, 0xfe, 0x71, 0xfe, 0x71, 0xfe, 0x71, 0xfe, 0x11, 0xfe, 0x1f,
   0x00, 0x00, 0x00, 0x00, 0x00, 0x00, 0x00, 0x00 };
