#define bat_10_width 16
#define bat_10_height 16
static unsigned char bat_10_bits[] = {
   0x00, 0x00, 0x00, 0x00, 0x00, 0x00, 0x00, 0x00, 0xfe, 0x1f, 0x06, 0x10,
   0x06, 0x70, 0x06, 0x70, 0x06, 0x70, 0x06, 0x70, 0x06, 0x10, 0xfe, 0x1f,
   0x00, 0x00, 0x00, 0x00, 0x00, 0x00, 0x00, 0x00 };
