#define bat_90_width 16
#define bat_90_height 16
static unsigned char bat_90_bits[] = {
   0x00, 0x00, 0x00, 0x00, 0x00, 0x00, 0x00, 0x00, 0xfe, 0x1f, 0xfe, 0x17,
   0xfe, 0x77, 0xfe, 0x77, 0xfe, 0x77, 0xfe, 0x77, 0xfe, 0x17, 0xfe, 0x1f,
   0x00, 0x00, 0x00, 0x00, 0x00, 0x00, 0x00, 0x00 };
