#define bat_30_width 16
#define bat_30_height 16
static unsigned char bat_30_bits[] = {
   0x00, 0x00, 0x00, 0x00, 0x00, 0x00, 0x00, 0x00, 0xfe, 0x1f, 0x1e, 0x10,
   0x1e, 0x70, 0x1e, 0x70, 0x1e, 0x70, 0x1e, 0x70, 0x1e, 0x10, 0xfe, 0x1f,
   0x00, 0x00, 0x00, 0x00, 0x00, 0x00, 0x00, 0x00 };
