#define bat_50_width 16
#define bat_50_height 16
static unsigned char bat_50_bits[] = {
   0x00, 0x00, 0x00, 0x00, 0x00, 0x00, 0x00, 0x00, 0xfe, 0x1f, 0x7e, 0x10,
   0x7e, 0x70, 0x7e, 0x70, 0x7e, 0x70, 0x7e, 0x70, 0x7e, 0x10, 0xfe, 0x1f,
   0x00, 0x00, 0x00, 0x00, 0x00, 0x00, 0x00, 0x00 };
