#define bat_40_width 16
#define bat_40_height 16
static unsigned char bat_40_bits[] = {
   0x00, 0x00, 0x00, 0x00, 0x00, 0x00, 0x00, 0x00, 0xfe, 0x1f, 0x3e, 0x10,
   0x3e, 0x70, 0x3e, 0x70, 0x3e, 0x70, 0x3e, 0x70, 0x3e, 0x10, 0xfe, 0x1f,
   0x00, 0x00, 0x00, 0x00, 0x00, 0x00, 0x00, 0x00 };
