#define bat_0_width 16
#define bat_0_height 16
static unsigned char bat_0_bits[] = {
   0x00, 0x00, 0x00, 0x00, 0x00, 0x00, 0x00, 0x00, 0xfe, 0x1f, 0x02, 0x10,
   0x02, 0x70, 0x02, 0x70, 0x02, 0x70, 0x02, 0x70, 0x02, 0x10, 0xfe, 0x1f,
   0x00, 0x00, 0x00, 0x00, 0x00, 0x00, 0x00, 0x00 };
