#define bat_60_width 16
#define bat_60_height 16
static unsigned char bat_60_bits[] = {
   0x00, 0x00, 0x00, 0x00, 0x00, 0x00, 0x00, 0x00, 0xfe, 0x1f, 0xfe, 0x10,
   0xfe, 0x70, 0xfe, 0x70, 0xfe, 0x70, 0xfe, 0x70, 0xfe, 0x10, 0xfe, 0x1f,
   0x00, 0x00, 0x00, 0x00, 0x00, 0x00, 0x00, 0x00 };
