#define bat_80_width 16
#define bat_80_height 16
static unsigned char bat_80_bits[] = {
   0x00, 0x00, 0x00, 0x00, 0x00, 0x00, 0x00, 0x00, 0xfe, 0x1f, 0xfe, 0x13,
   0xfe, 0x73, 0xfe, 0x73, 0xfe, 0x73, 0xfe, 0x73, 0xfe, 0x13, 0xfe, 0x1f,
   0x00, 0x00, 0x00, 0x00, 0x00, 0x00, 0x00, 0x00 };
