#define cross_width 12
#define cross_height 12
static unsigned char cross_bits[] = {
   0x00, 0x00, 0xf8, 0x01, 0xf8, 0x01, 0x06, 0x06, 0xf6, 0x06, 0xf6, 0x06,
   0xf6, 0x06, 0x06, 0x06, 0xf8, 0x01, 0xf8, 0x01, 0x00, 0x00, 0x00, 0x00 };
