#define gimp_width 12
#define gimp_height 12
static unsigned char gimp_bits[] = {
   0x00, 0x00, 0x00, 0x00, 0xf6, 0x06, 0xf6, 0x06, 0xf6, 0x06, 0xf6, 0x06,
   0x06, 0x06, 0xf6, 0x06, 0xf6, 0x06, 0xf6, 0x06, 0x00, 0x00, 0x00, 0x00 };
