#define magnify_width 12
#define magnify_height 12
static unsigned char magnify_bits[] = {
   0x00, 0x00, 0x00, 0x00, 0xee, 0x07, 0xee, 0x07, 0xee, 0x07, 0xee, 0x07,
   0x0e, 0x00, 0xbe, 0x07, 0xbe, 0x07, 0xbe, 0x07, 0x00, 0x00, 0x00, 0x00 };
