#define multimedia_width 16
#define multimedia_height 16
static unsigned char multimedia_bits[] = {
   0x00, 0x00, 0x00, 0x00, 0xfe, 0x7f, 0x92, 0x24, 0x92, 0x24, 0xfe, 0x7f,
   0xfe, 0x7f, 0xfe, 0x7f, 0xfe, 0x7f, 0xfe, 0x7f, 0xfe, 0x7f, 0x92, 0x24,
   0x92, 0x24, 0xfe, 0x7f, 0x00, 0x00, 0x00, 0x00 };
