/* XPM */
static char * pacman_xpm[] = {
"16 16 4 1",
" 	c None",
".	c #59BBE8",
"+	c #FFFFFF",
"@	c #000000",
"                ",
"      ....      ",
"    ........    ",
"   ..........   ",
"  ...++....++.  ",
"  ..@@++..@@++  ",
"  ..@@++..@@++  ",
" ...++++..++++. ",
" ....++....++.. ",
" .............. ",
" .............. ",
" .............. ",
" .............. ",
" .. ...  ... .. ",
" .   ..  ..   . ",
"                "};
