#define window_width 4
#define window_height 16
static unsigned char window_bits[] = {
   0x00, 0x00, 0x0f, 0x07, 0x03, 0x01, 0x00, 0x00, 0x00, 0x00, 0x00, 0x00,
   0x00, 0x00, 0x00, 0x00 };
