#define window_active_width 4
#define window_active_height 16
static unsigned char window_active_bits[] = {
   0x0f, 0x07, 0x03, 0x01, 0x00, 0x00, 0x00, 0x00, 0x00, 0x00, 0x00, 0x00,
   0x00, 0x00, 0x00, 0x00 };
